<svg width="100" height="100" viewBox="0 0 25 24" fill="none" xmlns="http://www.w3.org/2000/svg">
<path d="M0 5C0 2.23858 2.23858 0 5 0H25V19C25 21.7614 22.7614 24 20 24H5C2.23858 24 0 21.7614 0 19V5Z" fill="#currentColor"/>
<path fill-rule="evenodd" clip-rule="evenodd" d="M15.7898 4.52309C15.7905 4.5046 15.7908 4.48603 15.7908 4.46737C15.7908 3.65697 15.1253 3 14.3043 3C13.4834 3 12.8178 3.65697 12.8178 4.46737C12.8178 4.63105 12.8268 4.74832 12.8709 4.91657C12.914 5.08078 12.9608 5.14396 13.0465 5.25979L13.0529 5.26844L13.1212 5.37325L13.1291 5.38738C13.1566 5.43603 13.1759 5.47032 13.1775 5.53962C13.1817 5.72564 13.0324 5.8798 12.8439 5.88394C12.7308 5.88643 12.6292 5.83427 12.5653 5.75191C12.2857 5.39343 12.123 4.97869 12.1201 4.51229V4.46737C12.1959 3.63636 11.4545 3 10.6336 3C9.81259 3 9.14706 3.65697 9.14706 4.46737C9.14706 4.48963 9.14756 4.51178 9.14855 4.5338C9.14014 4.525 9.1316 4.51628 9.12293 4.50764C8.54577 3.93235 7.61001 3.93235 7.03284 4.50764C6.45568 5.08292 6.45568 6.01563 7.03284 6.59091C7.14942 6.70711 7.23925 6.78405 7.39008 6.87258C7.53728 6.95899 7.61518 6.97105 7.75798 6.99316L7.76864 6.99482L7.89127 7.02139L7.90692 7.02585C7.96087 7.04115 7.99889 7.05193 8.04935 7.10003C8.18478 7.22913 8.18957 7.44322 8.06005 7.57821C7.98227 7.65927 7.87375 7.69338 7.77012 7.67974C7.31828 7.62115 6.90855 7.44074 6.5743 7.11173L6.54231 7.07985C6.0038 6.43679 5.02939 6.50457 4.45222 7.07985C3.87506 7.65513 3.87506 8.58785 4.45222 9.16313C4.48399 9.19479 4.51684 9.22471 4.55066 9.25289C4.52467 9.25153 4.4985 9.25084 4.47217 9.25084C3.65911 9.25084 3 9.908 3 10.7187C3 11.5293 3.65911 12.1865 4.47217 12.1865C4.63638 12.1865 4.75404 12.1776 4.92283 12.1341C5.08758 12.0916 5.15097 12.0453 5.26718 11.9606L5.27585 11.9543L5.38101 11.8869L5.39518 11.8791C5.44399 11.852 5.47839 11.8329 5.54792 11.8313C5.73455 11.8272 5.88921 11.9746 5.89337 12.1607C5.89587 12.2725 5.84353 12.3727 5.7609 12.4359C5.40125 12.7119 4.98516 12.8725 4.51724 12.8755H4.47217C3.63844 12.8006 3 13.5326 3 14.3433C3 15.1539 3.65911 15.8111 4.47217 15.8111C4.50699 15.8111 4.54153 15.8099 4.57575 15.8075C4.55425 15.8266 4.53318 15.8464 4.51256 15.867C3.9354 16.4422 3.9354 17.375 4.51256 17.9502C5.08973 18.5255 6.02549 18.5255 6.60265 17.9502C6.71922 17.834 6.79642 17.7445 6.88524 17.5942C6.97193 17.4474 6.98403 17.3698 7.00622 17.2275L7.00787 17.2168L7.03453 17.0946L7.03901 17.079C7.05436 17.0252 7.06517 16.9873 7.11343 16.937C7.24295 16.8021 7.45774 16.7973 7.59317 16.9264C7.6745 17.0039 7.70872 17.1121 7.69503 17.2154C7.63626 17.6657 7.45525 18.0741 7.12517 18.4073L7.09318 18.4392C6.44803 18.9759 6.51602 19.9472 7.09318 20.5225C7.67035 21.0977 8.60611 21.0977 9.18327 20.5225C9.21581 20.49 9.24651 20.4565 9.27538 20.4219C9.27264 20.4584 9.27125 20.4954 9.27125 20.5326C9.27125 21.343 9.93056 22 10.7439 22C11.5572 22 12.2165 21.343 12.2165 20.5326C12.2165 20.3689 12.2076 20.2517 12.1639 20.0834C12.1212 19.9192 12.0749 19.856 11.9899 19.7402L11.9836 19.7316L11.9159 19.6267L11.9081 19.6126C11.8809 19.564 11.8617 19.5297 11.8602 19.4604C11.856 19.2744 12.004 19.1202 12.1906 19.1161C12.3027 19.1136 12.4033 19.1657 12.4667 19.2481C12.7436 19.6066 12.9048 20.0213 12.9077 20.4877V20.5326C12.8326 21.3636 13.567 22 14.3803 22C15.1936 22 15.8529 21.343 15.8529 20.5326C15.8529 20.504 15.8521 20.4755 15.8505 20.4472C15.8646 20.4625 15.8791 20.4776 15.8939 20.4924C16.4711 21.0676 17.4069 21.0676 17.984 20.4924C18.5612 19.9171 18.5612 18.9844 17.984 18.4091C17.8674 18.2929 17.7776 18.2159 17.6268 18.1274C17.4796 18.041 17.4017 18.029 17.2589 18.0068L17.2482 18.0052L17.1256 17.9786L17.1099 17.9741C17.056 17.9589 17.018 17.9481 16.9675 17.9C16.8321 17.7709 16.8273 17.5568 16.9568 17.4218C17.0346 17.3407 17.1431 17.3066 17.2467 17.3203C17.6986 17.3788 18.1083 17.5593 18.4426 17.8883L18.4745 17.9202C19.0131 18.5632 19.9875 18.4954 20.5646 17.9202C21.1418 17.3449 21.1418 16.4122 20.5646 15.8369C20.5332 15.8055 20.5007 15.7759 20.4672 15.748C20.4873 15.7488 20.5075 15.7492 20.5278 15.7492C21.3409 15.7492 22 15.092 22 14.2814C22 13.4707 21.3409 12.8136 20.5278 12.8136C20.3636 12.8136 20.246 12.8224 20.0772 12.866C19.9124 12.9085 19.849 12.9547 19.7328 13.0394L19.7241 13.0457L19.619 13.1131L19.6048 13.121C19.556 13.1481 19.5216 13.1672 19.4521 13.1687C19.2655 13.1729 19.1108 13.0254 19.1066 12.8393C19.1041 12.7276 19.1565 12.6273 19.2391 12.5642C19.5988 12.2881 20.0148 12.1275 20.4828 12.1246H20.5278C21.3616 12.1995 22 11.4674 22 10.6568C22 9.84611 21.3409 9.18895 20.5278 9.18895C20.4991 9.18895 20.4706 9.18976 20.4424 9.19138C20.4634 9.17264 20.4841 9.15319 20.5043 9.13304C21.0815 8.55776 21.0815 7.62504 20.5043 7.04976C19.9271 6.47448 18.9914 6.47448 18.4142 7.04976C18.2977 7.16595 18.2205 7.25549 18.1316 7.40583C18.0449 7.55255 18.0328 7.63019 18.0107 7.77252L18.009 7.78316L17.9823 7.90539C17.9808 7.91074 17.9793 7.91593 17.9779 7.92098C17.9625 7.97476 17.9517 8.01266 17.9034 8.06295C17.7739 8.19795 17.5591 8.20272 17.4237 8.07362C17.3424 7.99609 17.3082 7.88792 17.3218 7.78463C17.3806 7.33427 17.5616 6.92587 17.8917 6.59271L17.9237 6.56083C18.5688 6.02406 18.5009 5.05283 17.9237 4.47755C17.3465 3.90226 16.4108 3.90226 15.8336 4.47755C15.8186 4.49249 15.804 4.50767 15.7898 4.52309ZM15.9472 11.729C15.923 11.7078 15.8993 11.6857 15.8763 11.6627C15.3387 11.127 15.3018 10.2812 15.7655 9.70286L15.8962 9.55992C16.2059 9.24104 16.402 8.83642 16.4675 8.40914C16.4835 8.30618 16.4517 8.19728 16.3721 8.11797C16.2396 7.98589 16.0248 7.98589 15.8922 8.11797C15.8382 8.1718 15.8055 8.23914 15.7955 8.30912C15.7442 8.59534 15.6076 8.86935 15.3857 9.09052C15.3461 9.13005 15.3047 9.16686 15.2619 9.20095C14.7786 9.58586 14.1092 9.62465 13.5884 9.31731C13.1752 9.09274 12.8819 8.6798 12.8271 8.1957L12.8181 8.00321C12.8108 7.56119 12.6615 7.13854 12.4032 6.79159C12.3412 6.70785 12.2408 6.65346 12.1277 6.65346C11.9392 6.65346 11.7864 6.80429 11.7864 6.99036C11.7864 7.06619 11.8111 7.13663 11.8539 7.19293C12.0217 7.43053 12.1201 7.71942 12.1201 8.031C12.1201 8.08668 12.1169 8.14163 12.1108 8.1957C12.0901 8.37912 12.0351 8.55233 11.9523 8.70895C11.8816 8.85788 11.7845 8.99744 11.6609 9.12061C11.1234 9.65637 10.2749 9.69318 9.69462 9.23104L9.55121 9.10071C9.23128 8.79203 8.82534 8.59661 8.39667 8.53131C8.29338 8.51537 8.18412 8.54706 8.10454 8.62637C7.97203 8.75845 7.97203 8.97259 8.10454 9.10467C8.15855 9.1585 8.22611 9.19117 8.29632 9.20112C8.58347 9.25223 8.85838 9.38837 9.08028 9.60955C9.11993 9.64907 9.15686 9.69028 9.19107 9.73295C9.382 9.97112 9.48804 10.2546 9.50919 10.5432C9.51607 10.6007 9.51961 10.6593 9.51961 10.7187C9.51961 11.4736 8.94795 12.0954 8.21268 12.1773L8.01956 12.1862C7.5761 12.1934 7.15207 12.3408 6.80399 12.5958C6.71997 12.6572 6.6654 12.7562 6.6654 12.868C6.6654 13.0541 6.81673 13.205 7.0034 13.205C7.07948 13.205 7.15015 13.1805 7.20663 13.1382C7.44501 12.9726 7.73485 12.8755 8.04744 12.8755C8.1033 12.8755 8.15844 12.8786 8.21268 12.8846C8.4403 12.9099 8.65224 12.987 8.83639 13.1038C8.94512 13.1667 9.04753 13.2445 9.14062 13.3373C9.67812 13.873 9.71505 14.7188 9.25141 15.2971L9.12065 15.4401C8.81097 15.759 8.6149 16.1636 8.54939 16.5909C8.5334 16.6938 8.56519 16.8027 8.64476 16.882C8.77727 17.0141 8.99211 17.0141 9.12462 16.882C9.17863 16.8282 9.2114 16.7609 9.22139 16.6909C9.27266 16.4047 9.40925 16.1307 9.63115 15.9095C9.6708 15.8699 9.71215 15.8331 9.75496 15.799C10.1707 15.4679 10.7243 15.3929 11.2024 15.5742C11.7408 15.7498 12.1425 16.2263 12.2073 16.8043L12.2162 16.9968C12.2234 17.4388 12.3713 17.8615 12.6272 18.2084C12.6887 18.2922 12.7881 18.3465 12.9002 18.3465C13.0869 18.3465 13.2383 18.1957 13.2383 18.0096C13.2383 17.9338 13.2138 17.8634 13.1714 17.8071C13.0052 17.5695 12.9077 17.2806 12.9077 16.969C12.9077 16.9133 12.9108 16.8584 12.9169 16.8043C12.9286 16.6999 12.9513 16.5988 12.9838 16.5022C13.0514 16.2742 13.1754 16.0593 13.356 15.8794C13.8935 15.3436 14.742 15.3068 15.3222 15.769L15.4657 15.8993C15.7856 16.208 16.1915 16.4034 16.6202 16.4687C16.7235 16.4846 16.8327 16.4529 16.9123 16.3736C17.0448 16.2416 17.0448 16.0274 16.9123 15.8953C16.8583 15.8415 16.7908 15.8088 16.7205 15.7989C16.4334 15.7478 16.1585 15.6116 15.9366 15.3905C15.8969 15.3509 15.86 15.3097 15.8258 15.267C15.7096 15.1222 15.6249 14.9605 15.5716 14.7911C15.5126 14.6323 15.4804 14.4606 15.4804 14.2814C15.4804 13.5264 16.052 12.9046 16.7873 12.8227L16.9804 12.8138C17.4239 12.8066 17.8479 12.6592 18.196 12.4042C18.28 12.3429 18.3346 12.2438 18.3346 12.1321C18.3346 11.946 18.1833 11.7951 17.9966 11.7951C17.9205 11.7951 17.8499 11.8195 17.7934 11.8618C17.555 12.0274 17.2652 12.1246 16.9526 12.1246C16.8967 12.1246 16.8416 12.1215 16.7873 12.1154C16.4641 12.0794 16.1725 11.9391 15.9472 11.729Z" fill="white"/>
</svg>
